<svg width="73" height="44" viewBox="0 0 73 44" fill="none" xmlns="http://www.w3.org/2000/svg">
<g clip-path="url(#clip0_1019_28712)">
<path d="M20.7473 16.0524C20.7473 16.9469 20.8433 17.6722 21.0114 18.2041C21.2035 18.736 21.4436 19.3162 21.7798 19.9447C21.8999 20.1382 21.9479 20.3316 21.9479 20.5008C21.9479 20.7425 21.8038 20.9843 21.4917 21.2261L19.9788 22.2414C19.7627 22.3865 19.5466 22.459 19.3545 22.459C19.1144 22.459 18.8742 22.3382 18.6341 22.1206C18.2979 21.7579 18.0098 21.3711 17.7696 20.9843C17.5295 20.5733 17.2894 20.114 17.0252 19.5579C15.1522 21.7821 12.7989 22.8942 9.96535 22.8942C7.94824 22.8942 6.33936 22.314 5.16272 21.1535C3.98607 19.9931 3.38574 18.4458 3.38574 16.5118C3.38574 14.4568 4.10614 12.7887 5.57094 11.5316C7.03574 10.2744 8.98081 9.64585 11.4542 9.64585C12.2706 9.64585 13.1111 9.71837 13.9996 9.83925C14.888 9.96013 15.8005 10.1535 16.7611 10.3711V8.60628C16.7611 6.76892 16.3769 5.4876 15.6325 4.73815C14.864 3.9887 13.5673 3.62606 11.7183 3.62606C10.8778 3.62606 10.0134 3.72277 9.12489 3.94035C8.2364 4.15793 7.37193 4.42387 6.53147 4.76233C6.14726 4.93156 5.8591 5.02826 5.69101 5.07661C5.52291 5.12497 5.40285 5.14914 5.30679 5.14914C4.97061 5.14914 4.80252 4.90738 4.80252 4.39969V3.21508C4.80252 2.82826 4.85054 2.53815 4.97061 2.36892C5.09068 2.19969 5.30679 2.03046 5.64298 1.86123C6.48344 1.42606 7.49199 1.06343 8.66864 0.773317C9.84528 0.459032 11.094 0.313977 12.4147 0.313977C15.2723 0.313977 17.3614 0.966724 18.7061 2.27222C20.0269 3.57771 20.6992 5.56013 20.6992 8.21947V16.0524H20.7473ZM10.9979 19.7272C11.7903 19.7272 12.6068 19.5821 13.4713 19.292C14.3357 19.0019 15.1042 18.47 15.7525 17.7447C16.1367 17.2854 16.4249 16.7777 16.569 16.1975C16.713 15.6173 16.8091 14.9162 16.8091 14.0942V13.0788C16.1127 12.9096 15.3683 12.7645 14.5999 12.6678C13.8315 12.5711 13.0871 12.5228 12.3427 12.5228C10.7338 12.5228 9.55712 12.8371 8.76469 13.4898C7.97226 14.1425 7.58805 15.0612 7.58805 16.27C7.58805 17.4063 7.8762 18.2524 8.47653 18.8327C9.05285 19.4371 9.89331 19.7272 10.9979 19.7272ZM30.2805 22.3382C29.8482 22.3382 29.5601 22.2656 29.368 22.0964C29.1759 21.9513 29.0078 21.6129 28.8637 21.1535L23.2206 2.46562C23.0765 1.98211 23.0045 1.66782 23.0045 1.49859C23.0045 1.11178 23.1966 0.894196 23.5808 0.894196H25.9341C26.3903 0.894196 26.7025 0.966724 26.8706 1.13595C27.0627 1.28101 27.2068 1.61947 27.3509 2.07881L31.3851 18.0832L35.1311 2.07881C35.2512 1.5953 35.3953 1.28101 35.5874 1.13595C35.7795 0.9909 36.1157 0.894196 36.5479 0.894196H38.469C38.9252 0.894196 39.2374 0.966724 39.4295 1.13595C39.6216 1.28101 39.7897 1.61947 39.8857 2.07881L43.6798 18.2766L47.8341 2.07881C47.9782 1.5953 48.1463 1.28101 48.3144 1.13595C48.5065 0.9909 48.8186 0.894196 49.2509 0.894196H51.4841C51.8683 0.894196 52.0844 1.0876 52.0844 1.49859C52.0844 1.61947 52.0604 1.74035 52.0364 1.88541C52.0124 2.03046 51.9644 2.22387 51.8683 2.4898L46.0811 21.1777C45.9371 21.6612 45.769 21.9755 45.5769 22.1206C45.3848 22.2656 45.0726 22.3623 44.6644 22.3623H42.5992C42.143 22.3623 41.8308 22.2898 41.6387 22.1206C41.4466 21.9513 41.2785 21.6371 41.1825 21.1535L37.4604 5.56013L33.7624 21.1294C33.6423 21.6129 33.4982 21.9272 33.3061 22.0964C33.114 22.2656 32.7778 22.3382 32.3456 22.3382H30.2805ZM61.1374 22.9909C59.8887 22.9909 58.64 22.8458 57.4394 22.5557C56.2387 22.2656 55.3022 21.9513 54.6778 21.5887C54.2936 21.3711 54.0295 21.1294 53.9334 20.9118C53.8374 20.6942 53.7894 20.4524 53.7894 20.2349V19.0019C53.7894 18.4942 53.9815 18.2524 54.3417 18.2524C54.4857 18.2524 54.6298 18.2766 54.7739 18.325C54.918 18.3733 55.1341 18.47 55.3742 18.5667C56.1907 18.9294 57.0792 19.2195 58.0157 19.4129C58.9762 19.6063 59.9127 19.703 60.8732 19.703C62.3861 19.703 63.5627 19.4371 64.3792 18.9052C65.1956 18.3733 65.6278 17.5997 65.6278 16.6085C65.6278 15.9316 65.4117 15.3755 64.9795 14.9162C64.5473 14.4568 63.7308 14.0458 62.5542 13.659L59.0723 12.5711C57.3193 12.0151 56.0226 11.1931 55.2302 10.1052C54.4377 9.04145 54.0295 7.85683 54.0295 6.59969C54.0295 5.58431 54.2456 4.6898 54.6778 3.91617C55.1101 3.14255 55.6864 2.46563 56.4068 1.93376C57.1272 1.37771 57.9436 0.966724 58.9042 0.676614C59.8647 0.386504 60.8732 0.265625 61.9298 0.265625C62.4581 0.265625 63.0104 0.289801 63.5387 0.362328C64.091 0.434856 64.5953 0.531559 65.0996 0.628262C65.5798 0.749141 66.0361 0.870021 66.4683 1.01508C66.9005 1.16013 67.2367 1.30519 67.4769 1.45024C67.813 1.64365 68.0532 1.83705 68.1973 2.05464C68.3413 2.24804 68.4134 2.51398 68.4134 2.85244V3.9887C68.4134 4.49639 68.2213 4.76233 67.8611 4.76233C67.669 4.76233 67.3568 4.66563 66.9486 4.47222C65.5798 3.84365 64.043 3.52936 62.338 3.52936C60.9693 3.52936 59.8887 3.74694 59.1443 4.20628C58.3999 4.66562 58.0157 5.36672 58.0157 6.35793C58.0157 7.03486 58.2558 7.61508 58.7361 8.07442C59.2163 8.53376 60.1048 8.9931 61.3775 9.40409L64.7874 10.492C66.5163 11.048 67.765 11.8217 68.5094 12.8129C69.2538 13.8041 69.614 14.9404 69.614 16.1975C69.614 17.2371 69.3979 18.1799 68.9897 19.0019C68.5574 19.8239 67.9811 20.5491 67.2367 21.1294C66.4923 21.7338 65.6038 22.1689 64.5713 22.4832C63.4907 22.8217 62.3621 22.9909 61.1374 22.9909Z" fill="white"/>
<path fill-rule="evenodd" clip-rule="evenodd" d="M65.6758 34.7416C57.7755 40.6163 46.2972 43.735 36.4278 43.735C22.5962 43.735 10.1334 38.5855 0.72025 30.0273C-0.0241579 29.3503 0.64821 28.4317 1.5367 28.9635C11.7183 34.9108 24.2772 38.513 37.2683 38.513C46.0331 38.513 55.6624 36.6756 64.5232 32.9042C65.8439 32.2998 66.9726 33.7745 65.6758 34.7416Z" fill="#FF9900"/>
<path fill-rule="evenodd" clip-rule="evenodd" d="M68.966 30.9693C67.9574 29.6638 62.2903 30.3407 59.7209 30.655C58.9525 30.7517 58.8324 30.0748 59.5288 29.5671C64.0433 26.3759 71.4633 27.2946 72.3278 28.3583C73.1923 29.4462 72.0877 36.9166 67.8614 40.4946C67.213 41.0506 66.5887 40.7605 66.8768 40.0352C67.8373 37.6418 69.9745 32.2506 68.966 30.9693Z" fill="#FF9900"/>
</g>
<defs>
<clipPath id="clip0_1019_28712">
<rect width="73" height="44" fill="white"/>
</clipPath>
</defs>
</svg>
