<svg width="307" height="40" viewBox="0 0 307 40" fill="none" xmlns="http://www.w3.org/2000/svg">
<path d="M0.579102 15.8959C0.579102 7.79299 7.19453 1.22681 15.0895 1.22681C19.4453 1.22681 22.5489 2.98711 24.8901 5.27828L22.1133 8.10034C20.4526 6.47975 18.193 5.2224 15.0895 5.2224C9.34522 5.2224 4.85327 9.9724 4.85327 15.868C4.85327 21.7636 9.34522 26.5136 15.0895 26.5136C18.8192 26.5136 20.9426 24.9768 22.3038 23.5798C23.42 22.4342 24.1551 20.7856 24.4273 18.5503H15.0895V14.5548H28.2387C28.3748 15.2812 28.4565 16.1195 28.4565 17.0695C28.4565 20.0871 27.667 23.8033 25.0807 26.4298C22.5489 29.1121 19.3364 30.5371 15.0895 30.5371C7.19453 30.5371 0.579102 23.9709 0.579102 15.8959Z" fill="#4285F4"/>
<path d="M39.0463 11.6762C33.9554 11.6762 29.8174 15.6439 29.8174 21.1203C29.8174 26.5689 33.9554 30.5645 39.0463 30.5645C44.1372 30.5645 48.2752 26.5689 48.2752 21.1203C48.2752 15.6439 44.1372 11.6762 39.0463 11.6762ZM39.0463 26.8203C36.2695 26.8203 33.8465 24.4733 33.8465 21.0924C33.8465 17.6836 36.2422 15.3645 39.0463 15.3645C41.8232 15.3645 44.2461 17.6836 44.2461 21.0924C44.2461 24.4733 41.8232 26.8203 39.0463 26.8203Z" fill="#EA4335"/>
<path d="M59.1928 11.6762C54.1019 11.6762 49.9639 15.6439 49.9639 21.1203C49.9639 26.5689 54.1019 30.5645 59.1928 30.5645C64.2837 30.5645 68.4217 26.5689 68.4217 21.1203C68.4217 15.6439 64.2837 11.6762 59.1928 11.6762ZM59.1928 26.8203C56.4159 26.8203 53.993 24.4733 53.993 21.0924C53.993 17.6836 56.3887 15.3645 59.1928 15.3645C61.9969 15.3645 64.3926 17.6836 64.3926 21.0924C64.3926 24.4733 61.9696 26.8203 59.1928 26.8203Z" fill="#FBBC05"/>
<path d="M83.911 12.2357V13.7724H83.7748C82.8764 12.6548 81.1341 11.6489 78.929 11.6489C74.3281 11.6489 70.1084 15.7842 70.1084 21.121C70.1084 26.4018 74.3281 30.5371 78.929 30.5371C81.1341 30.5371 82.8764 29.5313 83.7748 28.3857H83.911V29.7548C83.911 33.3592 82.0325 35.2871 79.0106 35.2871C76.5333 35.2871 75.0087 33.471 74.3826 31.9342L70.8707 33.443C71.878 35.9577 74.5731 39.0312 79.0379 39.0312C83.7748 39.0312 87.7768 36.1813 87.7768 29.196V12.2357H83.911ZM79.2829 26.821C76.506 26.821 74.1648 24.418 74.1648 21.121C74.1648 17.796 76.506 15.3651 79.2829 15.3651C82.0325 15.3651 84.1832 17.796 84.1832 21.121C84.2104 24.446 82.0325 26.821 79.2829 26.821Z" fill="#4285F4"/>
<path d="M94.5848 29.9785H90.5557V2.23292H94.5848V29.9785Z" fill="#34A853"/>
<path d="M105.664 26.8203C103.595 26.8203 102.152 25.8424 101.199 23.9703L113.505 18.7453L113.096 17.6836C112.334 15.56 109.993 11.6762 105.229 11.6762C100.492 11.6762 96.5442 15.5042 96.5442 21.1203C96.5442 26.4012 100.437 30.5645 105.664 30.5645C109.884 30.5645 112.307 27.91 113.341 26.3733L110.211 24.2218C109.149 25.7865 107.733 26.8203 105.664 26.8203ZM105.365 15.3086C106.971 15.3086 108.332 16.1189 108.768 17.3203L100.546 20.813C100.437 17.1806 103.296 15.3086 105.365 15.3086Z" fill="#EA4335"/>
<path d="M131.897 3.96484C133.077 3.96484 134.045 4.17071 134.8 4.58247L133.915 7.52532C133.349 7.23467 132.712 7.08933 132.004 7.08933C131.201 7.08933 130.541 7.37999 130.021 7.96129C129.526 8.51837 129.278 9.26921 129.278 10.2138V12.4664H133.809V15.5182H129.278V30.2687H126.021V15.5182H122.765V12.4664H126.021V9.88685C126.021 8.11873 126.564 6.68969 127.65 5.59974C128.759 4.5098 130.175 3.96484 131.897 3.96484Z" fill="#EFEFEF"/>
<path d="M134.867 21.3673C134.867 18.6303 135.705 16.3656 137.381 14.5733C139.08 12.7809 141.216 11.8848 143.788 11.8848C146.36 11.8848 148.484 12.7809 150.16 14.5733C151.859 16.3656 152.708 18.6303 152.708 21.3673C152.708 24.1284 151.859 26.3931 150.16 28.1612C148.484 29.9536 146.36 30.8497 143.788 30.8497C141.216 30.8497 139.08 29.9536 137.381 28.1612C135.705 26.3689 134.867 24.1042 134.867 21.3673ZM138.124 21.3673C138.124 23.2807 138.667 24.8308 139.752 26.0177C140.838 27.2045 142.183 27.7979 143.788 27.7979C145.393 27.7979 146.738 27.2045 147.823 26.0177C148.909 24.8308 149.452 23.2807 149.452 21.3673C149.452 19.478 148.909 17.94 147.823 16.7532C146.714 15.5421 145.369 14.9366 143.788 14.9366C142.207 14.9366 140.862 15.5421 139.752 16.7532C138.667 17.94 138.124 19.478 138.124 21.3673Z" fill="#EFEFEF"/>
<path d="M158.612 30.268H155.355V12.4657H158.471V15.3722H158.612C158.943 14.4276 159.615 13.6283 160.63 12.9743C161.668 12.2961 162.683 11.957 163.674 11.957C164.618 11.957 165.42 12.1024 166.081 12.393L165.09 15.6265C164.689 15.457 164.052 15.3722 163.179 15.3722C161.951 15.3722 160.878 15.8808 159.957 16.8981C159.061 17.9154 158.612 19.1022 158.612 20.4586V30.268Z" fill="#EFEFEF"/>
<path d="M191.203 23.3291C191.203 25.6059 190.389 27.4345 188.76 28.8151C187.108 30.1715 185.102 30.8497 182.742 30.8497C180.642 30.8497 178.79 30.2199 177.185 28.9605C175.58 27.701 174.471 25.9813 173.857 23.8014L176.973 22.4935C177.185 23.2685 177.48 23.971 177.857 24.6007C178.235 25.2304 178.672 25.7754 179.167 26.2356C179.686 26.6716 180.253 27.0228 180.866 27.2892C181.48 27.5314 182.129 27.6525 182.813 27.6525C184.3 27.6525 185.515 27.265 186.459 26.4899C187.403 25.6906 187.875 24.637 187.875 23.3291C187.875 22.2392 187.486 21.3066 186.707 20.5316C185.976 19.7807 184.607 19.0541 182.601 18.3517C180.571 17.6009 179.309 17.0922 178.813 16.8258C176.123 15.421 174.778 13.3501 174.778 10.6131C174.778 8.69967 175.521 7.06476 177.008 5.70839C178.518 4.35202 180.371 3.67383 182.565 3.67383C184.501 3.67383 186.176 4.18247 187.592 5.19975C189.008 6.19281 189.952 7.44018 190.424 8.94188L187.38 10.2498C187.097 9.28097 186.53 8.48168 185.681 7.85193C184.855 7.19797 183.84 6.87099 182.636 6.87099C181.362 6.87099 180.288 7.2343 179.415 7.96093C178.542 8.63912 178.105 9.52318 178.105 10.6131C178.105 11.5093 178.447 12.2844 179.132 12.9383C179.887 13.5923 181.527 14.3674 184.052 15.2635C186.625 16.1597 188.453 17.2618 189.539 18.5697C190.648 19.8534 191.203 21.4399 191.203 23.3291Z" fill="#EFEFEF"/>
<path d="M200.525 30.5583C199.11 30.5583 197.93 30.1103 196.986 29.2141C196.065 28.3179 195.593 27.0705 195.57 25.472V15.5172H192.525V12.4653H195.57V7.01562H198.826V12.4653H203.074V15.5172H198.826V24.382C198.826 25.5688 199.051 26.3802 199.499 26.8162C199.947 27.228 200.455 27.4338 201.021 27.4338C201.281 27.4338 201.528 27.4096 201.764 27.3612C202.024 27.2885 202.26 27.2037 202.472 27.1069L203.499 30.086C202.649 30.4009 201.658 30.5583 200.525 30.5583Z" fill="#EFEFEF"/>
<path d="M208.197 24.8187C208.197 25.6907 208.551 26.4173 209.259 26.9986C209.99 27.5799 210.84 27.8706 211.808 27.8706C213.176 27.8706 214.392 27.3498 215.454 26.3083C216.539 25.2668 217.082 24.0437 217.082 22.6388C216.067 21.8153 214.651 21.4036 212.834 21.4036C211.513 21.4036 210.403 21.7306 209.507 22.3845C208.633 23.0385 208.197 23.8499 208.197 24.8187ZM212.409 11.8848C214.816 11.8848 216.716 12.5508 218.108 13.883C219.501 15.1909 220.197 16.9954 220.197 19.2964V30.2684H217.082V27.7979H216.94C215.595 29.8325 213.802 30.8497 211.56 30.8497C209.648 30.8497 208.043 30.2684 206.746 29.1058C205.471 27.9432 204.834 26.49 204.834 24.7461C204.834 22.9053 205.507 21.4399 206.852 20.35C208.22 19.26 210.038 18.7151 212.303 18.7151C214.238 18.7151 215.831 19.0784 217.082 19.805V19.042C217.082 17.8794 216.634 16.8985 215.737 16.0992C214.84 15.2757 213.79 14.8639 212.586 14.8639C210.769 14.8639 209.33 15.6511 208.268 17.2255L205.4 15.3726C206.982 13.0474 209.318 11.8848 212.409 11.8848Z" fill="#EFEFEF"/>
<path d="M244.189 30.5583C242.773 30.5583 241.593 30.1103 240.649 29.2141C239.729 28.3179 239.257 27.0705 239.233 25.472V15.5172H236.189V12.4653H239.233V7.01562H242.49V12.4653H246.738V15.5172H242.49V24.382C242.49 25.5688 242.714 26.3802 243.162 26.8162C243.611 27.228 244.118 27.4338 244.685 27.4338C244.944 27.4338 245.192 27.4096 245.428 27.3612C245.687 27.2885 245.923 27.2037 246.136 27.1069L247.162 30.086C246.313 30.4009 245.322 30.5583 244.189 30.5583ZM223.87 12.4653H226.985V15.3718H227.127C228.094 13.0951 230.088 11.9567 233.109 11.9567L233.782 12.0293V15.5172L232.33 15.3718C230.82 15.3718 229.569 15.8563 228.578 16.8251C227.611 17.7697 227.127 18.9808 227.127 20.4582V30.2677H223.87V12.4653Z" fill="#EFEFEF"/>
<path d="M265.089 30.2672H261.974V27.7967H261.832C261.336 28.6686 260.569 29.3953 259.531 29.9766C258.516 30.5579 257.454 30.8485 256.345 30.8485C254.221 30.8485 252.581 30.2309 251.425 28.9956C250.292 27.7361 249.726 25.9559 249.726 23.6549V12.4648H252.982V23.4369C253.053 26.3434 254.481 27.7967 257.265 27.7967C258.563 27.7967 259.649 27.2638 260.522 26.1981C261.395 25.1082 261.832 23.8123 261.832 22.3106V12.4648H265.089V30.2672Z" fill="#EFEFEF"/>
<path d="M277.582 27.7979C279.14 27.7979 280.45 27.1924 281.512 25.9813C282.574 24.7945 283.105 23.2565 283.105 21.3673C283.105 19.5022 282.574 17.9642 281.512 16.7532C280.45 15.5421 279.14 14.9366 277.582 14.9366C276.001 14.9366 274.68 15.5421 273.618 16.7532C272.579 17.9642 272.06 19.5022 272.06 21.3673C272.06 23.2565 272.579 24.8066 273.618 26.0177C274.68 27.2045 276.001 27.7979 277.582 27.7979ZM278.113 30.8497C276.839 30.8497 275.671 30.5712 274.609 30.0141C273.57 29.457 272.768 28.7183 272.202 27.7979H272.06L272.202 30.2684V38.116H268.945V12.4661H272.06V14.9366H272.202C272.768 14.0162 273.57 13.2775 274.609 12.7204C275.671 12.1633 276.839 11.8848 278.113 11.8848C280.402 11.8848 282.338 12.8052 283.919 14.646C285.547 16.511 286.361 18.7514 286.361 21.3673C286.361 24.0073 285.547 26.2478 283.919 28.0886C282.338 29.9293 280.402 30.8497 278.113 30.8497Z" fill="#EFEFEF"/>
<path d="M302.411 25.3274C302.411 26.8775 301.75 28.1854 300.429 29.2512C299.107 30.3169 297.443 30.8497 295.437 30.8497C293.691 30.8497 292.157 30.3895 290.836 29.4691C289.514 28.5245 288.57 27.2893 288.004 25.7633L290.906 24.4917C291.331 25.5575 291.945 26.3931 292.747 26.9986C293.573 27.5799 294.47 27.8706 295.437 27.8706C296.476 27.8706 297.337 27.6405 298.021 27.1803C298.729 26.7201 299.083 26.1751 299.083 25.5454C299.083 24.407 298.234 23.5714 296.535 23.0385L293.561 22.2755C290.187 21.4036 288.499 19.7323 288.499 17.2618C288.499 15.639 289.136 14.3432 290.411 13.3744C291.709 12.3813 293.361 11.8848 295.367 11.8848C296.901 11.8848 298.281 12.2602 299.508 13.011C300.759 13.7619 301.632 14.7671 302.128 16.0265L299.225 17.2618C298.895 16.511 298.352 15.9297 297.597 15.5179C296.865 15.0819 296.039 14.8639 295.119 14.8639C294.269 14.8639 293.502 15.0819 292.818 15.5179C292.157 15.9539 291.827 16.4867 291.827 17.1165C291.827 18.1338 292.759 18.8604 294.623 19.2964L297.243 19.9867C300.688 20.8586 302.411 22.6389 302.411 25.3274Z" fill="#EFEFEF"/>
</svg>
