<svg width="163" height="56" viewBox="0 0 163 56" fill="none" xmlns="http://www.w3.org/2000/svg">
<path d="M-6 -6V62H179.008V-6H-6ZM177.364 60.3564H-4.35642V-4.35642H177.364V60.3564ZM75.3591 55.33H74.5373V0.67003H75.3591V55.33ZM89.7677 24.3625H88.081V14.0992H89.7677V24.3625ZM97.1565 19.9493C97.1565 19.3335 97.0252 18.8617 96.7611 18.5339C96.4969 18.2069 96.0959 18.043 95.5589 18.043H95.4563C95.1428 18.043 94.8452 18.121 94.5612 18.2777C94.278 18.4344 94.048 18.6731 93.8722 18.9961C93.6964 19.3184 93.6089 19.7289 93.6089 20.2277V24.3625H91.9954V16.8552H93.4179V17.9841C93.6526 17.5736 93.9725 17.249 94.3782 17.0095C94.784 16.77 95.2653 16.6499 95.8222 16.6499H95.9694C96.8199 16.6499 97.4986 16.914 98.007 17.4415C98.5154 17.9698 98.77 18.732 98.77 19.7289V24.3625H97.1565V19.9493ZM101.211 23.5923C100.571 22.9527 100.251 22.0361 100.251 20.8435V20.3598C100.251 19.5777 100.399 18.911 100.698 18.358C100.996 17.8059 101.414 17.3834 101.952 17.0899C102.489 16.7971 103.11 16.6499 103.814 16.6499H103.961C104.654 16.6499 105.243 16.8161 105.728 17.1487C106.211 17.4813 106.561 17.9212 106.775 18.4678L105.486 19.0399C105.339 18.7375 105.14 18.4949 104.891 18.3143C104.642 18.1337 104.332 18.043 103.961 18.043H103.828C103.252 18.043 102.78 18.2339 102.414 18.615C102.047 18.9961 101.864 19.5681 101.864 20.3303V20.873C101.864 21.6646 102.042 22.2462 102.399 22.6177C102.756 22.9893 103.232 23.1746 103.828 23.1746H103.961C104.351 23.1746 104.679 23.0895 104.943 22.9185C105.206 22.7474 105.412 22.5151 105.559 22.2215L106.82 22.8819C106.604 23.3704 106.248 23.7713 105.749 24.084C105.251 24.3967 104.654 24.5534 103.961 24.5534H103.814C102.719 24.5534 101.851 24.2328 101.211 23.5923ZM111.336 24.5534H111.555C112.25 24.5534 112.851 24.4237 113.359 24.1644C113.867 23.9058 114.253 23.551 114.517 23.1014L113.345 22.3393C113.169 22.6424 112.937 22.8691 112.648 23.0211C112.36 23.1723 111.995 23.2478 111.555 23.2478H111.336C110.759 23.2478 110.307 23.0672 109.979 22.706C109.652 22.344 109.474 21.7966 109.445 21.0631H114.766V20.1688C114.766 19.094 114.471 18.2387 113.879 17.603C113.288 16.9681 112.485 16.6499 111.468 16.6499H111.336C110.27 16.6499 109.425 16.9801 108.799 17.6396C108.173 18.3 107.861 19.2109 107.861 20.3741V20.8578C107.861 22.0409 108.166 22.9527 108.777 23.5923C109.388 24.2328 110.241 24.5534 111.336 24.5534ZM110.038 18.4678C110.366 18.1361 110.798 17.9698 111.336 17.9698H111.453C112 17.9698 112.428 18.1289 112.736 18.4464C113.044 18.7638 113.198 19.226 113.198 19.8315V19.9341H109.459C109.518 19.2889 109.71 18.8004 110.038 18.4678ZM120.265 24.5534C120.881 24.5534 121.428 24.411 121.907 24.1278C122.386 23.8446 122.765 23.4269 123.043 22.8739C123.322 22.3218 123.461 21.6503 123.461 20.8578V20.3741C123.461 19.5729 123.322 18.8959 123.043 18.3437C122.765 17.7916 122.386 17.3707 121.907 17.0827C121.428 16.7947 120.881 16.6499 120.265 16.6499H120.177C119.6 16.6499 119.104 16.7653 118.689 16.9944C118.273 17.2243 117.948 17.5441 117.713 17.9547V16.8552H116.291V27.2951H117.904V23.4826C118.149 23.8247 118.464 24.0888 118.849 24.2742C119.235 24.4603 119.678 24.5534 120.177 24.5534L120.265 24.5534ZM119.78 23.1746C119.458 23.1746 119.15 23.0943 118.857 22.9328C118.564 22.7713 118.327 22.5175 118.146 22.1706C117.965 21.8237 117.875 21.3766 117.875 20.8292V20.3741C117.875 19.8172 117.965 19.3677 118.146 19.0256C118.327 18.6835 118.561 18.4344 118.849 18.2777C119.137 18.121 119.449 18.043 119.78 18.043H119.898C120.455 18.043 120.92 18.2292 121.291 18.5999C121.662 18.9715 121.848 19.5586 121.848 20.3598V20.8578C121.848 21.6598 121.662 22.2462 121.291 22.6177C120.92 22.9893 120.455 23.1746 119.898 23.1746H119.78ZM125.543 18.1894H123.959V16.8551H125.543V14.641H127.156V16.8551H129.604L129.414 18.1894H127.156V21.8993C127.156 22.3194 127.253 22.6201 127.449 22.8007C127.644 22.9821 127.938 23.072 128.328 23.072H129.604V24.4357H128.168C127.219 24.4357 126.545 24.2233 126.144 23.7976C125.743 23.3728 125.543 22.7641 125.543 21.9725V18.1894ZM131.026 13.835H132.698V15.5209H131.026V13.835ZM131.056 16.8552H132.669V24.3625H131.056V16.8552ZM135.975 24.1206C136.508 24.4086 137.111 24.5534 137.786 24.5534H137.918C138.592 24.5534 139.198 24.4086 139.736 24.1206C140.274 23.8326 140.696 23.4094 141.004 22.8524C141.312 22.2947 141.466 21.6256 141.466 20.8435V20.3598C141.466 19.5777 141.312 18.911 141.004 18.3581C140.696 17.8059 140.274 17.3834 139.736 17.0899C139.198 16.7971 138.592 16.6499 137.918 16.6499H137.786C137.111 16.6499 136.508 16.7971 135.975 17.0899C135.442 17.3834 135.019 17.8059 134.707 18.3581C134.394 18.911 134.237 19.5825 134.237 20.3741V20.8435C134.237 21.6256 134.394 22.2947 134.707 22.8524C135.019 23.4094 135.442 23.8326 135.975 24.1206ZM135.851 20.3304C135.851 19.5586 136.036 18.9842 136.408 18.6079C136.779 18.2316 137.238 18.043 137.786 18.043H137.903C138.46 18.043 138.924 18.2316 139.296 18.6079C139.667 18.9842 139.853 19.5586 139.853 20.3304V20.873C139.853 21.6455 139.667 22.2215 139.296 22.6026C138.924 22.9845 138.46 23.1746 137.903 23.1746H137.786C137.238 23.1746 136.779 22.9845 136.408 22.6026C136.036 22.2215 135.851 21.6455 135.851 20.873V20.3304ZM149.824 19.7289V24.3625H148.211V19.9493C148.211 19.3335 148.079 18.8617 147.815 18.5339C147.551 18.2069 147.15 18.043 146.613 18.043H146.51C146.197 18.043 145.899 18.121 145.615 18.2777C145.332 18.4344 145.102 18.6731 144.926 18.9961C144.75 19.3184 144.663 19.7289 144.663 20.2277V24.3625H143.049V16.8552H144.472V17.9841C144.707 17.5736 145.027 17.249 145.432 17.0095C145.838 16.77 146.319 16.6499 146.876 16.6499H147.023C147.874 16.6499 148.553 16.914 149.061 17.4415C149.569 17.9698 149.824 18.732 149.824 19.7289ZM94.5914 29.6063C93.9168 29.0446 92.9979 28.7638 91.8347 28.7638H88.081V39.0271H89.7677V35.4198H91.8347C92.9979 35.4198 93.9168 35.1438 94.5914 34.5916C95.2661 34.0395 95.6027 33.255 95.6027 32.2382V31.9303C95.6027 30.943 95.2661 30.1688 94.5914 29.6063ZM93.9168 32.2828C93.9168 32.8691 93.7234 33.2995 93.3376 33.5724C92.9517 33.8461 92.4361 33.983 91.7909 33.983H89.7677V30.215H91.7909C92.4361 30.215 92.9517 30.3518 93.3376 30.6255C93.7234 30.8992 93.9168 31.3249 93.9168 31.9009V32.2828ZM100.559 31.4323H101.321V32.9272H100.574C100.221 32.9272 99.8918 33.006 99.5839 33.1619C99.276 33.3186 99.0262 33.5653 98.836 33.9026C98.6451 34.2399 98.5504 34.6871 98.5504 35.244V39.0271H96.9369V31.5198H98.3594V32.9423C98.5448 32.4832 98.8065 32.1165 99.1439 31.8428C99.4812 31.5691 99.9522 31.4323 100.559 31.4323ZM107.436 31.7545C106.898 31.4617 106.292 31.3145 105.618 31.3145H105.486C104.811 31.3145 104.208 31.4617 103.675 31.7545C103.142 32.048 102.719 32.4705 102.407 33.0227C102.094 33.5756 101.937 34.2471 101.937 35.0387V35.5081C101.937 36.2902 102.094 36.9593 102.407 37.517C102.719 38.074 103.142 38.4972 103.675 38.7853C104.208 39.0733 104.811 39.218 105.486 39.218H105.618C106.292 39.218 106.898 39.0733 107.436 38.7853C107.974 38.4972 108.396 38.074 108.704 37.517C109.012 36.9593 109.166 36.2902 109.166 35.5081V35.0244C109.166 34.2423 109.012 33.5756 108.704 33.0227C108.396 32.4705 107.974 32.048 107.436 31.7545ZM107.553 35.5376C107.553 36.3101 107.367 36.8861 106.996 37.2672C106.624 37.6491 106.16 37.8393 105.603 37.8393H105.486C104.938 37.8393 104.479 37.6491 104.108 37.2672C103.736 36.8861 103.551 36.3101 103.551 35.5376V34.995C103.551 34.2232 103.736 33.6488 104.108 33.2725C104.479 32.8962 104.938 32.7076 105.486 32.7076H105.603C106.16 32.7076 106.624 32.8962 106.996 33.2725C107.367 33.6488 107.553 34.2232 107.553 34.995V35.5376ZM116.086 32.6344C115.597 31.7545 114.776 31.3145 113.622 31.3145H113.52C112.885 31.3145 112.327 31.4665 111.849 31.7696C111.369 32.0727 110.998 32.4976 110.734 33.045C110.47 33.5923 110.338 34.228 110.338 34.9512V35.3466C110.338 36.0706 110.47 36.7055 110.734 37.2529C110.998 37.8003 111.369 38.2259 111.849 38.5283C112.327 38.8314 112.885 38.9833 113.52 38.9833H113.622C114.62 38.9833 115.373 38.6261 115.881 37.9125V38.6898C115.881 40.1067 115.255 40.8156 114.004 40.8156H113.813C113.334 40.8156 112.951 40.7448 112.662 40.6032C112.374 40.4616 112.132 40.2293 111.936 39.907L110.778 40.7719C111.052 41.2309 111.43 41.5786 111.914 41.8133C112.399 42.0472 113.011 42.165 113.754 42.165H114.062C115.167 42.165 116.017 41.8595 116.614 41.2484C117.21 40.6374 117.508 39.7702 117.508 38.646V31.5198H116.086L116.086 32.6344ZM115.91 35.3323C115.91 36.0165 115.736 36.5663 115.389 36.9816C115.043 37.3969 114.58 37.6046 114.004 37.6046H113.872C113.275 37.6046 112.806 37.4025 112.465 36.9967C112.122 36.591 111.952 36.0412 111.952 35.3466V34.9361C111.952 34.2423 112.122 33.6974 112.465 33.3011C112.806 32.9057 113.275 32.7076 113.872 32.7076H114.004C114.58 32.7076 115.043 32.9105 115.389 33.3162C115.736 33.722 115.91 34.2718 115.91 34.9655V35.3323ZM123.109 31.4323H123.872V32.9272H123.124C122.772 32.9272 122.442 33.006 122.135 33.1619C121.827 33.3186 121.577 33.5653 121.387 33.9026C121.196 34.2399 121.101 34.6871 121.101 35.244V39.0271H119.488V31.5198H120.91V32.9423C121.095 32.4832 121.357 32.1165 121.695 31.8428C122.032 31.5691 122.503 31.4323 123.109 31.4323ZM127.919 31.3145H127.698C126.965 31.3145 126.342 31.4641 125.829 31.7616C125.316 32.06 124.947 32.4681 124.722 32.9861L125.969 33.6313C126.144 33.2701 126.371 33.0131 126.65 32.862C126.929 32.71 127.278 32.6344 127.698 32.6344H127.86C128.857 32.6344 129.355 33.1913 129.355 34.306V34.3649L126.701 34.7165C125.958 34.8144 125.394 35.0586 125.008 35.4493C124.622 35.8407 124.429 36.3435 124.429 36.9593C124.429 37.673 124.649 38.2283 125.089 38.6237C125.529 39.0199 126.149 39.2181 126.95 39.2181H127.053C127.611 39.2181 128.109 39.0979 128.549 38.8584C128.989 38.619 129.321 38.2943 129.546 37.8838V39.0271H130.968V34.2765C130.968 33.3091 130.709 32.5731 130.191 32.0695C129.673 31.5667 128.915 31.3145 127.919 31.3145ZM129.355 35.9624C129.355 36.5591 129.184 37.0357 128.842 37.3921C128.5 37.7494 128.04 37.9276 127.464 37.9276H127.317C126.897 37.9276 126.572 37.8321 126.343 37.6412C126.113 37.451 125.998 37.1893 125.998 36.8567C125.998 36.5249 126.097 36.2807 126.298 36.1239C126.498 35.968 126.852 35.855 127.361 35.7866L129.355 35.4938V35.9624ZM143.439 32.1061C143.913 32.6344 144.15 33.3966 144.15 34.3935V39.0271H142.537V34.6139C142.537 33.9981 142.422 33.5263 142.193 33.1985C141.963 32.8715 141.598 32.7076 141.1 32.7076H140.982C140.709 32.7076 140.442 32.7856 140.184 32.9423C139.924 33.099 139.714 33.3377 139.553 33.6608C139.392 33.983 139.311 34.3935 139.311 34.8923V39.0271H137.698V34.6139C137.698 33.9981 137.583 33.5263 137.354 33.1985C137.124 32.8715 136.759 32.7076 136.261 32.7076H136.144C135.87 32.7076 135.603 32.7856 135.345 32.9423C135.085 33.099 134.875 33.3377 134.715 33.6608C134.553 33.983 134.473 34.3935 134.473 34.8924V39.0271H132.859V31.5198H134.282V32.6344C134.506 32.2239 134.807 31.9009 135.183 31.667C135.56 31.4323 136.002 31.3145 136.51 31.3145H136.642C137.776 31.3145 138.558 31.7791 138.989 32.7076C139.223 32.278 139.543 31.9375 139.949 31.6884C140.355 31.4394 140.826 31.3145 141.364 31.3145H141.496C142.317 31.3145 142.964 31.5786 143.439 32.1061Z" fill="white"/>
<path d="M29.2834 39.1333L29.2844 49.558H32.2284V39.1335L29.2834 39.1333ZM6.12305 39.1191V49.558H9.09336V41.6316L11.3944 41.6324C12.1567 41.6324 12.6995 41.8221 13.0669 42.214C13.5325 42.7103 13.7226 43.5102 13.7226 44.9742V49.558L16.6001 49.5575L16.6006 43.7906C16.6006 39.6742 13.9767 39.1191 11.4098 39.1191H6.12305ZM34.0238 39.1337V49.558H38.799C41.3433 49.558 42.1736 49.1348 43.0717 48.1861C43.7066 47.5201 44.1167 46.0581 44.1167 44.4604C44.1167 42.9952 43.7695 41.6879 43.1638 40.8739C42.0731 39.4182 40.5017 39.1337 38.1558 39.1337H34.0238ZM36.9442 41.4035H38.2101C40.0465 41.4035 41.2342 42.2282 41.2342 44.368C41.2342 46.5083 40.0465 47.333 38.2101 47.333H36.9442V41.4035ZM25.0385 39.1337L22.5814 47.3955L20.2269 39.1342L17.0488 39.1337L20.4113 49.558H24.6546L28.0435 39.1337H25.0385ZM45.4867 49.558H48.4313V39.1342L45.486 39.1337L45.4867 49.558ZM53.74 39.1374L49.6289 49.5544H52.5319L53.1824 47.7132H58.0477L58.6634 49.5544H61.8153L57.6728 39.1366L53.74 39.1374ZM55.6511 41.0379L57.4346 45.9181H53.8114L55.6511 41.0379Z" fill="white"/>
<path d="M25.391 14.7143V12.2099C25.634 12.1927 25.8796 12.1797 26.1299 12.1718C32.9794 11.9565 37.4732 18.0573 37.4732 18.0573C37.4732 18.0573 32.6197 24.7985 27.4158 24.7985C26.6663 24.7985 25.9956 24.6776 25.391 24.4746V16.8804C28.0574 17.2025 28.5936 18.3804 30.1971 21.0526L33.7626 18.0464C33.7626 18.0464 31.16 14.6328 26.7725 14.6328C26.2951 14.6328 25.8388 14.6665 25.391 14.7143ZM25.391 6.44141V10.1823C25.6368 10.1627 25.8829 10.1472 26.1299 10.1382C35.6552 9.81734 41.8609 17.9501 41.8609 17.9501C41.8609 17.9501 34.7328 26.6178 27.3071 26.6178C26.6266 26.6178 25.9896 26.5549 25.391 26.4489V28.7613C25.9029 28.8263 26.4332 28.8647 26.9866 28.8647C33.8972 28.8647 38.8948 25.3358 43.7341 21.1588C44.5358 21.8012 47.8208 23.364 48.4963 24.049C43.8947 27.9008 33.1719 31.0053 27.0929 31.0053C26.5071 31.0053 25.9437 30.97 25.391 30.9169V34.1666H51.6565V6.44141H25.391ZM25.391 24.4746V26.4489C18.9993 25.3094 17.2254 18.6654 17.2254 18.6654C17.2254 18.6654 20.2941 15.2653 25.391 14.7143L25.391 16.8804C25.387 16.8804 25.3844 16.8794 25.3809 16.8794C22.7065 16.5582 20.6167 19.0573 20.6167 19.0573C20.6167 19.0573 21.7875 23.264 25.391 24.4746ZM14.0388 18.3775C14.0388 18.3775 17.8269 12.7878 25.391 12.2099L25.391 10.1823C17.0131 10.8546 9.75806 17.9501 9.75806 17.9501C9.75806 17.9501 13.8669 29.8294 25.391 30.9169V28.7613C16.9344 27.6973 14.0388 18.3775 14.0388 18.3775Z" fill="#76B900"/>
</svg>
