<svg width="202" height="54" viewBox="0 0 202 54" fill="none" xmlns="http://www.w3.org/2000/svg">
<g clip-path="url(#clip0_1019_28718)">
<path d="M13.4666 33.1571V31.2343H20.1898V33.68C20.1846 34.0013 20.2481 34.32 20.3762 34.6146C20.5042 34.9093 20.6937 35.173 20.932 35.3881C21.1703 35.6032 21.4518 35.7647 21.7575 35.8616C22.0633 35.9586 22.3863 35.9888 22.7047 35.9502C23.2486 36.0241 23.8004 35.8906 24.2506 35.576C24.7009 35.2614 25.0167 34.7887 25.1354 34.2517C25.3154 33.6366 25.3001 32.9806 25.0917 32.3745C23.7904 29.0956 14.8991 27.6114 13.7696 22.5008C13.5396 21.3781 13.5253 20.2218 13.7275 19.0938C14.421 14.9901 18.02 13.5059 22.4875 13.5059C26.0444 13.5059 30.9463 14.3357 30.9463 19.8376V21.6288H24.7011V20.0568C24.72 19.747 24.6717 19.4367 24.5595 19.1474C24.4473 18.858 24.274 18.5964 24.0513 18.3806C23.8287 18.1647 23.5621 17.9997 23.2698 17.8969C22.9774 17.794 22.6664 17.7558 22.3579 17.7849C21.8312 17.7268 21.302 17.8699 20.8761 18.1857C20.4501 18.5016 20.1587 18.9668 20.0602 19.4884C19.99 19.924 20.0048 20.3691 20.1039 20.799C20.8396 23.7236 30.3403 25.2973 31.3823 30.5816C31.6427 31.9511 31.6569 33.3562 31.4244 34.7307C30.8167 38.9204 27.0864 40.4924 22.5768 40.4924C17.8432 40.4924 13.4666 38.7888 13.4666 33.1571ZM94.9264 33.0711V31.1483H101.564V33.5501C101.553 33.8685 101.612 34.1854 101.735 34.4792C101.858 34.773 102.043 35.0367 102.277 35.2522C102.511 35.4678 102.789 35.6301 103.091 35.7282C103.394 35.8262 103.714 35.8577 104.03 35.8203C104.569 35.9009 105.118 35.7747 105.569 35.467C106.019 35.1594 106.337 34.6929 106.459 34.1607C106.639 33.5599 106.624 32.9174 106.417 32.3256C105.158 29.0956 96.3522 27.6029 95.2261 22.5008C94.9957 21.393 94.9808 20.2511 95.1823 19.1376C95.8809 15.0778 99.4849 13.5936 103.862 13.5936C107.376 13.5936 112.233 14.4673 112.233 19.8814V21.6288H106.031V20.1007C106.051 19.7947 106.005 19.4879 105.896 19.2014C105.787 18.9148 105.618 18.655 105.4 18.4397C105.182 18.2244 104.921 18.0585 104.633 17.9534C104.345 17.8483 104.039 17.8063 103.734 17.8304C103.217 17.7617 102.693 17.8961 102.272 18.2055C101.852 18.5148 101.567 18.9752 101.478 19.4901C101.407 19.9256 101.421 20.3707 101.52 20.8006C102.214 23.7253 111.62 25.2551 112.669 30.4939C112.929 31.8487 112.943 33.2393 112.711 34.5992C112.103 38.7922 108.417 40.3203 103.958 40.3203C99.2661 40.3237 94.9264 38.6151 94.9264 33.0711ZM118.697 33.9903C118.636 33.4387 118.622 32.8829 118.655 32.3289V14.248H124.987V32.894C124.979 33.215 124.993 33.5363 125.029 33.8554C125.171 34.3812 125.481 34.8456 125.912 35.1768C126.344 35.508 126.872 35.6875 127.416 35.6875C127.959 35.6875 128.487 35.508 128.919 35.1768C129.35 34.8456 129.66 34.3812 129.802 33.8554C129.839 33.5364 129.854 33.2151 129.845 32.894V14.248H136.182V32.3256C136.182 32.8063 136.138 33.7238 136.138 33.9869C135.705 38.7096 132.017 40.2276 127.42 40.2276C122.823 40.2276 119.131 38.7011 118.697 33.9869V33.9903ZM170.836 33.7272C170.772 33.1736 170.743 32.6164 170.749 32.0591V21.4534C170.749 21.0165 170.791 20.2306 170.835 19.792C171.399 15.0778 175.173 13.5936 179.64 13.5936C184.066 13.5936 187.968 15.0778 188.404 19.7937C188.456 20.3459 188.47 20.901 188.446 21.4551V22.2765H182.113V20.8867C182.114 20.5642 182.085 20.2424 182.027 19.9253C181.861 19.3929 181.529 18.9276 181.08 18.5973C180.632 18.267 180.089 18.0889 179.532 18.0889C178.976 18.0889 178.433 18.267 177.985 18.5973C177.536 18.9276 177.204 19.3929 177.038 19.9253C176.964 20.3143 176.936 20.7104 176.952 21.1059V32.6325C176.945 32.9536 176.959 33.2749 176.996 33.5939C177.146 34.1657 177.495 34.665 177.979 35.002C178.464 35.339 179.053 35.4916 179.64 35.4324C180.217 35.4939 180.796 35.3412 181.267 35.0032C181.739 34.6653 182.071 34.1656 182.199 33.599C182.257 33.282 182.272 32.9586 182.243 32.6376V28.9641H179.684V25.2956H188.533V32.0591C188.54 32.6136 188.51 33.168 188.446 33.7188C188.013 38.3031 184.069 39.9189 179.64 39.9189C175.211 39.9189 171.269 38.3081 170.836 33.7238V33.7272ZM82.5657 39.4433L82.3974 16.1252L78.0544 39.4433H71.7217L67.4258 16.1252L67.2575 39.4433H61.0073L61.5274 14.2918H71.7217L74.888 33.9431L78.0544 14.2918H88.247L88.8109 39.4433H82.5657ZM49.2525 39.4433L45.869 16.1252L42.398 39.4433H35.6327L40.2316 14.2918H51.3803L55.9791 39.4433H49.2525ZM155.264 39.1818L148.975 18.2656L149.322 39.1801H143.161V14.2918H152.443L158.334 34.5536L157.996 14.2918H164.199V39.1835L155.264 39.1818Z" fill="white"/>
</g>
<defs>
<clipPath id="clip0_1019_28718">
<rect width="202" height="54" fill="white"/>
</clipPath>
</defs>
</svg>
